<svg width="32" height="32" viewBox="0 0 32 32" fill="none" xmlns="http://www.w3.org/2000/svg">
<path d="M0.779528 0.384827H30.4945V20.2368C31.4378 21.4573 32 22.9848 32 24.6415C32 26.6305 31.1921 28.4336 29.8882 29.7376C28.5811 31.0415 26.7795 31.8494 24.7921 31.8494C22.8031 31.8494 20.9984 31.0415 19.6945 29.7376C19.526 29.5675 19.3638 29.3896 19.211 29.2037H0V0.384827H0.779528ZM19.7969 1.94388V6.50766H28.9354V1.94388H19.7969ZM28.9354 8.06514H19.7969V11.4746C19.7969 11.9203 19.6142 12.3266 19.3228 12.6179C19.0299 12.9092 18.6252 13.0919 18.1795 13.0919H12.3795C11.9354 13.0919 11.5323 12.9092 11.2394 12.6179C10.9433 12.3218 10.7622 11.9171 10.7622 11.4746V8.06514H1.55906V27.6447H18.2378C17.8189 26.7297 17.5843 25.7124 17.5843 24.6415C17.5843 22.6541 18.3906 20.8525 19.6961 19.547C20.9984 18.2415 22.8031 17.4336 24.7921 17.4336C26.3323 17.4336 27.7622 17.9187 28.9354 18.7455V8.06514ZM1.55906 6.50766H10.7622V1.94388H1.55906V6.50766ZM12.3197 6.50766H18.2378V1.94388H12.3197V6.50766ZM18.2378 8.06514H12.3197V11.4746L12.3354 11.5155L12.3795 11.5329H18.1795L18.2205 11.5155L18.2378 11.4746V8.06514ZM28.7874 20.6447C27.7669 19.6242 26.3543 18.9927 24.7921 18.9927C23.2315 18.9927 21.8189 19.6258 20.7969 20.6462C19.7732 21.6667 19.1433 23.0793 19.1433 24.6415C19.1433 26.2006 19.7748 27.6147 20.7969 28.6352C21.8189 29.6573 23.2315 30.2903 24.7921 30.2903C26.3543 30.2903 27.7669 29.6588 28.7858 28.6384C29.8079 27.6147 30.4409 26.2006 30.4409 24.6415C30.4409 23.0793 29.8094 21.6667 28.7874 20.6447ZM4.41102 18.6368H13.2205C13.6504 18.6368 14 18.9848 14 19.4163V24.599C14 25.0289 13.6504 25.3785 13.2205 25.3785H4.41102C3.97953 25.3785 3.6315 25.0289 3.6315 24.599V19.4163C3.6315 18.9848 3.97953 18.6368 4.41102 18.6368ZM12.4409 20.1943H5.18898V23.8195H12.4409V20.1943ZM4.41102 17.0777C3.97953 17.0777 3.6315 16.7281 3.6315 16.2982C3.6315 15.8683 3.97953 15.5187 4.41102 15.5187H13.2205C13.6504 15.5187 14 15.8683 14 16.2982C14 16.7281 13.6504 17.0777 13.2205 17.0777H4.41102Z" fill="#373435"/>
<path d="M21.3969 24.6195C21.0946 24.3155 21.0961 23.8226 21.4001 23.5202C21.704 23.2179 22.1969 23.2195 22.4993 23.5234L24.2206 25.2478L27.0851 22.3832C27.3891 22.0793 27.8835 22.0793 28.1875 22.3832C28.4914 22.6872 28.4914 23.1817 28.1875 23.4856L24.7733 26.8998C24.4662 27.2021 23.9733 27.2006 23.6709 26.8966L21.3969 24.6195Z" fill="#3DB9AF"/>
</svg>
