<svg width="32" height="31" viewBox="0 0 32 31" fill="none" xmlns="http://www.w3.org/2000/svg">
<path d="M18.7181 2.58713L31.5748 25.4423C31.8567 25.9446 32 26.4863 32 27.0312C32 27.573 31.8567 28.1163 31.5748 28.6186C31.2913 29.1226 30.8992 29.5241 30.4362 29.7997C29.9669 30.0769 29.4299 30.2249 28.8583 30.2249H3.14173C2.57008 30.2249 2.03307 30.0769 1.56378 29.7997C1.10079 29.5241 0.708661 29.1226 0.425197 28.6186C0.141732 28.1163 0 27.573 0 27.0312C0 26.4911 0.143307 25.9493 0.426772 25.4438L13.2819 2.58713C13.5654 2.08162 13.9591 1.68005 14.422 1.40603C14.8913 1.12887 15.4283 0.980835 16 0.980835C16.5717 0.980835 17.1087 1.12887 17.578 1.40603C18.0409 1.68005 18.4346 2.08162 18.7181 2.58713ZM30.2142 26.206L17.3559 3.34934C17.2094 3.08792 17.0126 2.8832 16.7843 2.74776C16.5575 2.61548 16.2913 2.54304 16 2.54304C15.7087 2.54304 15.4425 2.61548 15.2157 2.74776C14.9874 2.8832 14.7906 3.08792 14.6441 3.34934L1.78583 26.206C1.63622 26.4659 1.5622 26.7478 1.5622 27.0312C1.5622 27.31 1.6378 27.5919 1.78583 27.8564C1.93386 28.1178 2.13071 28.3226 2.35906 28.458C2.58425 28.5903 2.85039 28.6627 3.14173 28.6627H28.8583C29.148 28.6627 29.4157 28.5903 29.6409 28.458C29.8693 28.3226 30.0661 28.1178 30.2142 27.8564C30.3606 27.5919 30.4378 27.31 30.4378 27.0312C30.4378 26.7509 30.3622 26.469 30.2142 26.206Z" fill="#373435"/>
<path fill-rule="evenodd" clip-rule="evenodd" d="M16.1023 23.5777C16.5338 23.5777 16.8834 23.9273 16.8834 24.3588C16.8834 24.7903 16.5338 25.1399 16.1023 25.1399C15.6692 25.1399 15.3196 24.7903 15.3196 24.3588C15.3196 23.9273 15.6692 23.5777 16.1023 23.5777ZM15.3196 11.8108C15.3196 11.3808 15.6708 11.0297 16.1023 11.0297C16.5322 11.0297 16.8834 11.3808 16.8834 11.8108V21.2454C16.8834 21.6769 16.5322 22.0265 16.1023 22.0265C15.6708 22.0265 15.3196 21.6769 15.3196 21.2454V11.8108Z" fill="#3DB9AF"/>
</svg>
