<svg width="146" height="51" viewBox="0 0 146 51" fill="none" xmlns="http://www.w3.org/2000/svg">
<path d="M126.223 49.7896H124.019L125.174 46.1598H127.378L126.223 49.7896ZM127.708 45.123C127.617 45.408 127.31 45.6416 127.025 45.6416H125.858C125.572 45.6416 125.414 45.408 125.504 45.123L125.669 44.6049C125.76 44.3195 126.068 44.0859 126.353 44.0859H127.52C127.805 44.0859 127.964 44.3195 127.873 44.6049L127.708 45.123ZM131.278 44.0859L130.54 46.4073C130.583 46.2713 130.507 46.1598 130.371 46.1598H128.415C128.13 46.1598 127.822 46.3933 127.732 46.6787L126.907 49.2711C126.816 49.5564 126.975 49.7896 127.26 49.7896H131.667L133.482 44.0859H131.278ZM129.625 49.2832C129.581 49.4192 129.435 49.5303 129.299 49.5303H129.275C129.139 49.5303 129.063 49.4192 129.106 49.2832L129.939 46.6662C129.982 46.5305 130.129 46.4194 130.265 46.4194H130.289C130.425 46.4194 130.501 46.5305 130.457 46.6662L129.625 49.2832ZM137.648 48.1043L138.102 46.6787C138.192 46.3933 138.033 46.1598 137.748 46.1598H133.859C133.574 46.1598 133.266 46.3933 133.175 46.6787L132.351 49.2711C132.26 49.5564 132.419 49.7896 132.704 49.7896H137.112L137.195 49.53H134.991C134.705 49.53 134.546 49.2971 134.637 49.0118L134.926 48.1043H137.648ZM135.383 46.6662C135.426 46.5305 135.573 46.4194 135.709 46.4194H135.733C135.869 46.4194 135.945 46.5305 135.902 46.6662L135.527 47.8451H135.008L135.383 46.6662ZM141.425 46.4194H143.628L143.71 46.1598H139.304C139.018 46.1598 138.71 46.3933 138.62 46.6787L137.795 49.2711C137.704 49.5564 137.864 49.7896 138.149 49.7896H142.556L142.638 49.5303H140.435C140.149 49.5303 139.991 49.2971 140.081 49.0118L140.741 46.9376C140.832 46.6522 141.139 46.4194 141.425 46.4194ZM125.057 44.0859L123.902 47.7158L121.686 44.0859H119.872L118.057 49.7896H118.316L119.471 46.1598L121.686 49.7896H123.501L125.316 44.0859H125.057Z" fill="#7F858F"/>
<path d="M62.2681 37.5239H57.1215L55.9518 40.7138H54.9468L59.2399 29.373H60.1493L64.4425 40.7138H63.4458L62.2681 37.5239ZM57.4163 36.7102H61.965L59.692 30.5401L57.4163 36.7102ZM70.227 32.2919L70.2588 33.7277C70.5751 33.2092 70.9686 32.8131 71.4418 32.5421C71.915 32.2681 72.4362 32.1324 73.0076 32.1324C73.9113 32.1324 74.5841 32.3879 75.0251 32.8955C75.4666 33.4031 75.69 34.1662 75.6952 35.1844V40.7138H74.7674V35.1791C74.7621 34.4266 74.6026 33.8657 74.2889 33.4991C73.9752 33.1294 73.4729 32.9461 72.7816 32.9461C72.2049 32.9461 71.6942 33.1268 71.2505 33.4855C70.8064 33.8472 70.4795 34.3336 70.2667 34.9451V40.7138H69.3388V32.2919H70.227ZM86.8815 40.7138C86.7885 40.4481 86.7273 40.0573 86.7035 39.5388C86.3762 39.9643 85.9589 40.2939 85.4513 40.5252C84.946 40.7565 84.409 40.8733 83.8428 40.8733C83.0347 40.8733 82.3782 40.6473 81.8782 40.1953C81.3759 39.7436 81.1261 39.1718 81.1261 38.4809C81.1261 37.6618 81.4662 37.0106 82.1495 36.5348C82.8329 36.0563 83.7846 35.8171 85.0046 35.8171H86.6952V34.8574C86.6952 34.2538 86.5092 33.778 86.1369 33.4326C85.7677 33.0867 85.2253 32.914 84.5129 32.914C83.8643 32.914 83.3273 33.0788 82.9017 33.4114C82.4765 33.741 82.2637 34.1397 82.2637 34.605L81.3279 34.597C81.3279 33.9296 81.6389 33.3528 82.2637 32.8637C82.8858 32.3769 83.6515 32.1324 84.5605 32.1324C85.5016 32.1324 86.2409 32.3664 86.7833 32.8369C87.3279 33.3075 87.6072 33.9613 87.6204 34.8042V38.7893C87.6204 39.6053 87.7081 40.2168 87.8782 40.6208V40.7138H86.8815ZM83.9547 40.06C84.5768 40.06 85.1324 39.9084 85.6241 39.6053C86.1131 39.3048 86.4722 38.9008 86.6952 38.3958V36.5348H85.0284C84.0983 36.5454 83.3722 36.7155 82.8461 37.0481C82.3223 37.3776 82.0619 37.8323 82.0619 38.4117C82.0619 38.8849 82.2346 39.2783 82.5853 39.592C82.9364 39.9031 83.3938 40.06 83.9547 40.06ZM94.6038 40.7138H93.668V28.7509H94.6038V40.7138ZM103.262 39.374L105.721 32.2919H106.726L103.129 42.1413L102.94 42.5775C102.48 43.601 101.765 44.1112 100.8 44.1112C100.577 44.1112 100.337 44.0742 100.082 44.0024L100.074 43.234L100.558 43.282C101.015 43.282 101.385 43.1701 101.667 42.9441C101.951 42.7181 102.19 42.3299 102.387 41.78L102.802 40.642L99.6223 32.2919H100.643L103.262 39.374ZM113.071 30.1387V32.2919H114.815V33.0576H113.071V38.6721C113.071 39.14 113.156 39.4881 113.323 39.7168C113.494 39.9454 113.775 40.06 114.169 40.06C114.326 40.06 114.576 40.0331 114.924 39.9829L114.964 40.7429C114.719 40.828 114.387 40.8733 113.967 40.8733C113.329 40.8733 112.863 40.6874 112.574 40.3177C112.281 39.9454 112.138 39.4004 112.138 38.6774V33.0576H110.585V32.2919H112.138V30.1387H113.071ZM121.248 40.7138H120.315V32.2919H121.248V40.7138ZM120.15 29.8541C120.15 29.6814 120.208 29.5325 120.323 29.4104C120.437 29.2906 120.591 29.2297 120.788 29.2297C120.987 29.2297 121.144 29.2906 121.261 29.4104C121.378 29.5325 121.437 29.6814 121.437 29.8541C121.437 30.0298 121.378 30.1788 121.261 30.2956C121.144 30.4154 120.987 30.4736 120.788 30.4736C120.591 30.4736 120.437 30.4154 120.323 30.2956C120.208 30.1788 120.15 30.0298 120.15 29.8541ZM130.35 40.0917C131.001 40.0917 131.543 39.9084 131.982 39.5414C132.421 39.1748 132.66 38.6986 132.695 38.1165H133.59C133.564 38.6298 133.404 39.0977 133.109 39.5229C132.811 39.9454 132.418 40.275 131.929 40.5143C131.437 40.7539 130.911 40.8733 130.35 40.8733C129.244 40.8733 128.369 40.4878 127.723 39.7194C127.077 38.9514 126.753 37.9173 126.753 36.6198V36.3383C126.753 35.5086 126.899 34.7724 127.189 34.1344C127.479 33.4964 127.896 33.0017 128.439 32.6536C128.981 32.3055 129.616 32.1324 130.345 32.1324C131.267 32.1324 132.03 32.4091 132.628 32.9594C133.229 33.5097 133.55 34.2327 133.59 35.1311H132.695C132.655 34.4719 132.415 33.9401 131.982 33.5361C131.549 33.1321 131.004 32.9299 130.345 32.9299C129.502 32.9299 128.848 33.233 128.385 33.8419C127.92 34.4508 127.689 35.3012 127.689 36.3991V36.6705C127.689 37.7469 127.92 38.5844 128.385 39.188C128.848 39.7912 129.504 40.0917 130.35 40.0917ZM143.952 38.5765C143.952 38.1139 143.769 37.7416 143.397 37.4627C143.025 37.1807 142.466 36.96 141.719 36.8031C140.97 36.6437 140.39 36.463 139.978 36.2585C139.566 36.0537 139.258 35.8012 139.058 35.506C138.859 35.2108 138.758 34.8521 138.758 34.4292C138.758 33.7648 139.037 33.2171 139.593 32.784C140.148 32.3505 140.858 32.1324 141.727 32.1324C142.666 32.1324 143.421 32.3637 143.99 32.829C144.556 33.2942 144.84 33.9005 144.84 34.6473H143.907C143.907 34.1556 143.7 33.7463 143.288 33.4193C142.876 33.092 142.355 32.9299 141.727 32.9299C141.113 32.9299 140.621 33.0656 140.249 33.3396C139.88 33.6132 139.694 33.967 139.694 34.4028C139.694 34.8253 139.848 35.1526 140.156 35.3835C140.465 35.6149 141.028 35.825 141.847 36.0193C142.666 36.2105 143.277 36.4154 143.684 36.6331C144.093 36.8511 144.394 37.1142 144.593 37.42C144.79 37.7257 144.888 38.0954 144.888 38.5311C144.888 39.2409 144.601 39.8101 144.027 40.2353C143.453 40.6605 142.706 40.8733 141.781 40.8733C140.799 40.8733 140.005 40.6367 139.394 40.1609C138.785 39.685 138.479 39.0841 138.479 38.3558H139.412C139.449 38.9034 139.678 39.3286 140.103 39.6344C140.526 39.9401 141.084 40.0917 141.781 40.0917C142.429 40.0917 142.953 39.9481 143.354 39.6639C143.753 39.3766 143.952 39.0149 143.952 38.5765Z" fill="#23374A"/>
<path d="M54.9468 24.6055V3.20351H57.4537L71.61 20.7836H70.2951V3.20351H73.3527V24.6055H70.8454L56.6895 7.02499H58.004V24.6055H54.9468ZM77.0158 24.6055V8.40112H79.951V24.6055H77.0158ZM78.4834 5.28225C77.9127 5.28225 77.4388 5.09894 77.0619 4.73195C76.6847 4.36534 76.4961 3.91671 76.4961 3.38682C76.4961 2.83652 76.6847 2.37768 77.0619 2.01107C77.4388 1.64408 77.9127 1.46039 78.4834 1.46039C79.0541 1.46039 79.5281 1.63879 79.9053 1.99558C80.2825 2.35236 80.4711 2.7957 80.4711 3.32559C80.4711 3.87589 80.2874 4.33964 79.9204 4.71684C79.5538 5.09403 79.0745 5.28225 78.4834 5.28225ZM83.6451 24.6055V3.20351H92.6646C94.9474 3.20351 96.9604 3.65177 98.7031 4.54865C100.446 5.44553 101.801 6.69882 102.77 8.30928C103.737 9.91936 104.222 11.7845 104.222 13.9045C104.222 16.024 103.737 17.8892 102.77 19.4997C101.801 21.1098 100.446 22.3634 98.7031 23.2603C96.9604 24.1572 94.9474 24.6055 92.6646 24.6055H83.6451ZM86.7024 21.9454H92.4813C94.2546 21.9454 95.7883 21.6091 97.0825 20.9367C98.3769 20.2639 99.3808 19.3213 100.094 18.1085C100.808 16.8956 101.164 15.4942 101.164 13.9045C101.164 12.294 100.808 10.8877 100.094 9.68502C99.3808 8.48238 98.3769 7.54506 97.0825 6.8723C95.7883 6.19954 94.2546 5.86317 92.4813 5.86317H86.7024V21.9454ZM116.201 24.6055V21.1812L116.048 20.5391V14.6993C116.048 13.4559 115.686 12.4928 114.963 11.8099C114.239 11.1273 113.154 10.7856 111.707 10.7856C110.749 10.7856 109.811 10.9436 108.894 11.2596C107.977 11.5755 107.202 11.9985 106.57 12.5284L105.347 10.3272C106.183 9.65441 107.187 9.14001 108.359 8.78322C109.531 8.42644 110.759 8.24804 112.043 8.24804C114.265 8.24804 115.977 8.78814 117.18 9.86871C118.382 10.9489 118.983 12.5998 118.983 14.8218V24.6055H116.201ZM110.881 24.7888C109.679 24.7888 108.624 24.5851 107.717 24.1772C106.81 23.7698 106.112 23.204 105.622 22.4806C105.133 21.7568 104.889 20.9367 104.889 20.0194C104.889 19.1429 105.098 18.3477 105.515 17.6345C105.933 16.9209 106.616 16.3502 107.564 15.9224C108.512 15.4942 109.791 15.2802 111.401 15.2802H116.538V17.39H111.523C110.056 17.39 109.067 17.6345 108.557 18.1236C108.048 18.613 107.793 19.2041 107.793 19.8969C107.793 20.6918 108.109 21.329 108.741 21.8079C109.373 22.2867 110.249 22.5263 111.37 22.5263C112.471 22.5263 113.434 22.2818 114.26 21.7927C115.085 21.3033 115.682 20.5901 116.048 19.6524L116.629 21.6703C116.242 22.6284 115.559 23.3877 114.581 23.9482C113.602 24.5087 112.369 24.7888 110.881 24.7888ZM127.661 24.7888C126.03 24.7888 124.766 24.3507 123.869 23.4743C122.973 22.5978 122.524 21.3441 122.524 19.7136V4.85441H125.46V19.5912C125.46 20.4676 125.679 21.1404 126.117 21.6091C126.555 22.0781 127.182 22.3124 127.997 22.3124C128.914 22.3124 129.679 22.0577 130.29 21.5482L131.207 23.6576C130.759 24.045 130.224 24.3303 129.602 24.5136C128.981 24.6973 128.333 24.7888 127.661 24.7888ZM119.772 10.8162V8.40112H130.107V10.8162H119.772ZM142.484 24.6055V21.1812L142.331 20.5391V14.6993C142.331 13.4559 141.969 12.4928 141.246 11.8099C140.522 11.1273 139.437 10.7856 137.989 10.7856C137.032 10.7856 136.094 10.9436 135.177 11.2596C134.259 11.5755 133.485 11.9985 132.853 12.5284L131.63 10.3272C132.466 9.65441 133.469 9.14001 134.642 8.78322C135.814 8.42644 137.042 8.24804 138.326 8.24804C140.548 8.24804 142.26 8.78814 143.463 9.86871C144.665 10.9489 145.266 12.5998 145.266 14.8218V24.6055H142.484ZM137.164 24.7888C135.961 24.7888 134.906 24.5851 134 24.1772C133.093 23.7698 132.395 23.204 131.905 22.4806C131.416 21.7568 131.172 20.9367 131.172 20.0194C131.172 19.1429 131.381 18.3477 131.798 17.6345C132.216 16.9209 132.899 16.3502 133.847 15.9224C134.795 15.4942 136.074 15.2802 137.684 15.2802H142.82V17.39H137.806C136.339 17.39 135.35 17.6345 134.84 18.1236C134.331 18.613 134.076 19.2041 134.076 19.8969C134.076 20.6918 134.392 21.329 135.024 21.8079C135.656 22.2867 136.532 22.5263 137.653 22.5263C138.754 22.5263 139.717 22.2818 140.543 21.7927C141.368 21.3033 141.964 20.5901 142.331 19.6524L142.912 21.6703C142.525 22.6284 141.842 23.3877 140.863 23.9482C139.885 24.5087 138.652 24.7888 137.164 24.7888Z" fill="#7F858F"/>
<path d="M113.583 47.8537C113.583 48.3734 113.468 48.7868 113.238 49.0918C113.007 49.3969 112.698 49.5496 112.31 49.5496C111.846 49.5496 111.494 49.3761 111.256 49.0299L111.241 49.4864H110.896V44.7522H111.262V46.6352C111.496 46.2723 111.844 46.0901 112.303 46.0901C112.698 46.0901 113.01 46.2406 113.24 46.5418C113.468 46.8434 113.583 47.2622 113.583 47.7977V47.8537ZM113.213 47.7894C113.213 47.3495 113.128 47.0108 112.957 46.7708C112.786 46.532 112.546 46.4122 112.236 46.4122C111.999 46.4122 111.799 46.47 111.635 46.5856C111.47 46.7024 111.346 46.8721 111.262 47.0963V48.5994C111.447 49.0182 111.773 49.2275 112.242 49.2275C112.546 49.2275 112.784 49.1077 112.956 48.8666C113.127 48.627 113.213 48.2672 113.213 47.7894ZM115.421 48.9562L116.394 46.1533H116.792L115.368 50.0515L115.294 50.2238C115.111 50.629 114.829 50.8312 114.447 50.8312C114.358 50.8312 114.264 50.8164 114.162 50.7877L114.159 50.4838L114.351 50.5027C114.532 50.5027 114.678 50.4585 114.79 50.3689C114.902 50.2798 114.997 50.1259 115.075 49.9082L115.239 49.4581L113.981 46.1533H114.385L115.421 48.9562Z" fill="#7F858F"/>
<path fill-rule="evenodd" clip-rule="evenodd" d="M47.3349 24.9823C47.3349 37.327 37.3271 47.3348 24.9824 47.3348V24.9823H47.3349ZM24.9824 24.9823H2.62988C2.62988 12.6376 12.6377 2.62982 24.9824 2.62982V24.9823Z" fill="#23374A"/>
<path fill-rule="evenodd" clip-rule="evenodd" d="M22.3525 49.9646C18.9725 49.9646 15.7674 49.2132 12.8954 47.8696H22.3525V49.9646ZM8.41247 45.0841C7.51748 44.369 6.67767 43.5867 5.90249 42.7442H22.3525V45.0841H8.41247ZM3.7183 39.9587C3.22054 39.2092 2.76699 38.428 2.36107 37.6184H22.3525V39.9587H3.7183ZM1.19282 34.8333C0.932785 34.0709 0.713194 33.2901 0.535934 32.493H22.3525V34.8333H1.19282ZM0.0986451 29.7078C0.0343931 29.0177 0 28.3189 0 27.6121H22.3525V29.7078H0.0986451ZM27.6121 0C39.9568 0 49.9646 10.0078 49.9646 22.3525H27.6121V0Z" fill="#83B6BC"/>
</svg>
