<svg width="120" height="40" viewBox="0 0 120 40" fill="none" xmlns="http://www.w3.org/2000/svg">
<path d="M104.269 39.1803H102.449L103.403 36.3239H105.223L104.269 39.1803ZM105.496 35.5081C105.421 35.7324 105.167 35.9161 104.931 35.9161H103.967C103.732 35.9161 103.6 35.7324 103.675 35.5081L103.812 35.1003C103.886 34.8758 104.141 34.692 104.376 34.692H105.34C105.576 34.692 105.707 34.8758 105.632 35.1003L105.496 35.5081ZM108.445 34.692L107.835 36.5187C107.871 36.4117 107.808 36.3239 107.696 36.3239H106.079C105.844 36.3239 105.59 36.5077 105.515 36.7323L104.834 38.7723C104.759 38.9968 104.89 39.1803 105.126 39.1803H108.766L110.265 34.692H108.445ZM107.079 38.7818C107.043 38.8888 106.922 38.9763 106.81 38.9763H106.79C106.678 38.9763 106.615 38.8888 106.651 38.7818L107.339 36.7225C107.374 36.6157 107.496 36.5282 107.608 36.5282H107.628C107.74 36.5282 107.803 36.6157 107.767 36.7225L107.079 38.7818ZM113.707 37.8541L114.082 36.7323C114.156 36.5077 114.025 36.3239 113.79 36.3239H110.577C110.342 36.3239 110.087 36.5077 110.012 36.7323L109.331 38.7723C109.256 38.9968 109.388 39.1803 109.623 39.1803H113.264L113.332 38.976H111.512C111.276 38.976 111.145 38.7928 111.22 38.5682L111.458 37.8541H113.707ZM111.836 36.7225C111.872 36.6157 111.993 36.5282 112.105 36.5282H112.125C112.237 36.5282 112.3 36.6157 112.264 36.7225L111.954 37.6501H111.526L111.836 36.7225ZM116.827 36.5282H118.647L118.715 36.3239H115.075C114.839 36.3239 114.585 36.5077 114.51 36.7323L113.828 38.7723C113.753 38.9968 113.885 39.1803 114.121 39.1803H117.761L117.829 38.9763H116.009C115.773 38.9763 115.642 38.7928 115.717 38.5682L116.262 36.936C116.337 36.7114 116.591 36.5282 116.827 36.5282ZM103.305 34.692L102.352 37.5484L100.521 34.692H99.0225L97.5232 39.1803H97.7374L98.6912 36.3239L100.521 39.1803H102.02L103.52 34.692H103.305Z" fill="white"/>
<path d="M51.4376 29.5282H47.1861L46.2198 32.0384H45.3896L48.9361 23.1141H49.6873L53.2337 32.0384H52.4104L51.4376 29.5282ZM47.4297 28.8879H51.1872L49.3095 24.0325L47.4297 28.8879ZM58.0122 25.411L58.0384 26.5409C58.2998 26.1329 58.6248 25.8212 59.0157 25.6079C59.4066 25.3923 59.8371 25.2855 60.3092 25.2855C61.0557 25.2855 61.6114 25.4866 61.9758 25.886C62.3404 26.2855 62.525 26.8859 62.5293 27.6872V32.0384H61.7629V27.683C61.7585 27.0909 61.6267 26.6495 61.3676 26.361C61.1084 26.0701 60.6935 25.9259 60.1225 25.9259C59.646 25.9259 59.2242 26.068 58.8577 26.3503C58.4908 26.6349 58.2208 27.0177 58.045 27.4989V32.0384H57.2785V25.411H58.0122ZM71.77 32.0384C71.6932 31.8293 71.6426 31.5218 71.6229 31.1137C71.3525 31.4486 71.0079 31.708 70.5886 31.89C70.1711 32.072 69.7275 32.1639 69.2598 32.1639C68.5922 32.1639 68.0499 31.9861 67.6369 31.6304C67.2219 31.2749 67.0156 30.8249 67.0156 30.2813C67.0156 29.6368 67.2966 29.1243 67.861 28.7499C68.4255 28.3733 69.2117 28.1851 70.2195 28.1851H71.6161V27.4299C71.6161 26.9549 71.4624 26.5805 71.1549 26.3087C70.8499 26.0365 70.4018 25.9006 69.8133 25.9006C69.2776 25.9006 68.8339 26.0303 68.4824 26.292C68.1311 26.5513 67.9553 26.8651 67.9553 27.2312L67.1823 27.225C67.1823 26.6998 67.4392 26.2459 67.9553 25.861C68.4692 25.478 69.1018 25.2855 69.8527 25.2855C70.6301 25.2855 71.2408 25.4696 71.6888 25.8399C72.1387 26.2102 72.3694 26.7247 72.3804 27.388V30.524C72.3804 31.1661 72.4528 31.6473 72.5933 31.9652V32.0384H71.77ZM69.3522 31.5239C69.8661 31.5239 70.325 31.4046 70.7312 31.1661C71.1352 30.9296 71.4318 30.6117 71.6161 30.2143V28.7499H70.2392C69.4708 28.7582 68.8711 28.892 68.4365 29.1538C68.0037 29.4131 67.7886 29.7709 67.7886 30.2268C67.7886 30.5992 67.9313 30.9088 68.221 31.1557C68.5111 31.4004 68.8889 31.5239 69.3522 31.5239ZM78.1492 32.0384H77.3761V22.6245H78.1492V32.0384ZM85.3011 30.9841L87.3324 25.411H88.1625L85.1915 33.1618L85.0354 33.505C84.6554 34.3104 84.0647 34.7119 83.2676 34.7119C83.0831 34.7119 82.8855 34.6828 82.6747 34.6262L82.6682 34.0216L83.0678 34.0594C83.4456 34.0594 83.7506 33.9713 83.9835 33.7935C84.2186 33.6156 84.4163 33.3102 84.5786 32.8774L84.9211 31.9819L82.2948 25.411H83.1381L85.3011 30.9841ZM93.4043 23.7167V25.411H94.8449V26.0136H93.4043V30.4318C93.4043 30.8 93.4746 31.0739 93.6129 31.2538C93.7534 31.4338 93.9863 31.5239 94.3113 31.5239C94.4409 31.5239 94.6473 31.5028 94.9348 31.4632L94.9679 32.0613C94.7659 32.1282 94.4911 32.1639 94.1443 32.1639C93.6172 32.1639 93.2329 32.0176 92.9934 31.7267C92.7521 31.4338 92.6335 31.0049 92.6335 30.4359V26.0136H91.3509V25.411H92.6335V23.7167H93.4043ZM100.159 32.0384H99.3882V25.411H100.159V32.0384ZM99.2521 23.4927C99.2521 23.3568 99.3002 23.2396 99.3948 23.1435C99.4891 23.0493 99.6165 23.0014 99.7791 23.0014C99.9437 23.0014 100.073 23.0493 100.17 23.1435C100.266 23.2396 100.315 23.3568 100.315 23.4927C100.315 23.631 100.266 23.7482 100.17 23.8401C100.073 23.9344 99.9437 23.9802 99.7791 23.9802C99.6165 23.9802 99.4891 23.9344 99.3948 23.8401C99.3002 23.7482 99.2521 23.631 99.2521 23.4927ZM107.678 31.5489C108.216 31.5489 108.664 31.4046 109.026 31.1158C109.389 30.8273 109.586 30.4526 109.615 29.9946H110.355C110.333 30.3985 110.201 30.7667 109.957 31.1013C109.711 31.4338 109.386 31.6931 108.982 31.8814C108.576 32.0699 108.141 32.1639 107.678 32.1639C106.764 32.1639 106.042 31.8605 105.508 31.2559C104.974 30.6515 104.707 29.8378 104.707 28.8168V28.5952C104.707 27.9424 104.827 27.363 105.067 26.861C105.306 26.3589 105.651 25.9696 106.099 25.6957C106.547 25.4218 107.072 25.2855 107.673 25.2855C108.435 25.2855 109.066 25.5033 109.56 25.9363C110.056 26.3693 110.322 26.9383 110.355 27.6453H109.615C109.582 27.1266 109.384 26.7081 109.026 26.3902C108.668 26.0722 108.218 25.9131 107.673 25.9131C106.977 25.9131 106.437 26.1516 106.055 26.6308C105.671 27.1099 105.48 27.7791 105.48 28.6431V28.8566C105.48 29.7037 105.671 30.3628 106.055 30.8377C106.437 31.3124 106.979 31.5489 107.678 31.5489ZM118.915 30.3565C118.915 29.9925 118.763 29.6995 118.456 29.48C118.148 29.2581 117.687 29.0845 117.07 28.961C116.45 28.8355 115.972 28.6934 115.632 28.5325C115.291 28.3713 115.036 28.1726 114.872 27.9403C114.707 27.708 114.623 27.4258 114.623 27.0929C114.623 26.5701 114.854 26.1391 115.313 25.7983C115.772 25.4571 116.358 25.2855 117.076 25.2855C117.852 25.2855 118.476 25.4676 118.945 25.8337C119.413 26.1998 119.648 26.6769 119.648 27.2646H118.877C118.877 26.8776 118.706 26.5555 118.366 26.2982C118.025 26.0407 117.595 25.9131 117.076 25.9131C116.569 25.9131 116.163 26.0199 115.855 26.2355C115.55 26.4508 115.396 26.7292 115.396 27.0721C115.396 27.4046 115.524 27.6622 115.779 27.8439C116.033 28.0259 116.499 28.1913 117.175 28.3442C117.852 28.4947 118.357 28.6559 118.693 28.8272C119.031 28.9988 119.279 29.2058 119.444 29.4464C119.606 29.687 119.688 29.9779 119.688 30.3208C119.688 30.8794 119.45 31.3273 118.976 31.6619C118.502 31.9965 117.885 32.1639 117.121 32.1639C116.31 32.1639 115.653 31.9777 115.149 31.6033C114.646 31.2288 114.393 30.7559 114.393 30.1828H115.164C115.194 30.6138 115.383 30.9484 115.735 31.189C116.084 31.4296 116.545 31.5489 117.121 31.5489C117.656 31.5489 118.089 31.4358 118.421 31.2122C118.75 30.9861 118.915 30.7015 118.915 30.3565Z" fill="white"/>
<path d="M45.3896 19.3625V2.52092H47.4606L59.1546 16.355H58.0684V2.52092H60.5942V19.3625H58.523L46.8293 5.52812H47.9152V19.3625H45.3896ZM63.6202 19.3625V6.61101H66.0449V19.3625H63.6202ZM64.8326 4.15672C64.3611 4.15672 63.9696 4.01247 63.6583 3.72368C63.3467 3.43518 63.1909 3.08215 63.1909 2.66518C63.1909 2.23214 63.3467 1.87107 63.6583 1.58257C63.9696 1.29378 64.3611 1.14923 64.8326 1.14923C65.304 1.14923 65.6955 1.28962 66.0071 1.57038C66.3187 1.85114 66.4745 2.20001 66.4745 2.61699C66.4745 3.05003 66.3228 3.41496 66.0196 3.71179C65.7167 4.00861 65.3209 4.15672 64.8326 4.15672ZM69.0965 19.3625V2.52092H76.5472C78.433 2.52092 80.0958 2.87366 81.5355 3.57944C82.9751 4.28521 84.0947 5.27145 84.8946 6.53874C85.6942 7.80574 86.0941 9.27349 86.0941 10.9417C86.0941 12.6096 85.6942 14.0774 84.8946 15.3447C84.0947 16.6117 82.9751 17.5982 81.5355 18.304C80.0958 19.0098 78.433 19.3625 76.5472 19.3625H69.0965ZM71.622 17.2693H76.3958C77.8607 17.2693 79.1276 17.0046 80.1967 16.4755C81.266 15.9461 82.0953 15.2043 82.6844 14.2499C83.2739 13.2955 83.5686 12.1926 83.5686 10.9417C83.5686 9.67441 83.2739 8.56772 82.6844 7.62134C82.0953 6.67496 81.266 5.93736 80.1967 5.40796C79.1276 4.87856 77.8607 4.61386 76.3958 4.61386H71.622V17.2693ZM95.9901 19.3625V16.6679L95.8637 16.1626V11.5672C95.8637 10.5887 95.5649 9.83085 94.9673 9.29342C94.3694 8.75628 93.4727 8.48742 92.2772 8.48742C91.4861 8.48742 90.7115 8.61174 89.9537 8.86038C89.196 9.10902 88.5562 9.44183 88.0342 9.85881L87.0239 8.12665C87.7142 7.59725 88.5434 7.19246 89.5116 6.9117C90.4798 6.63094 91.4945 6.49056 92.5551 6.49056C94.3906 6.49056 95.805 6.91557 96.7984 7.76589C97.7916 8.61591 98.2883 9.91502 98.2883 11.6635V19.3625H95.9901ZM91.5954 19.5067C90.6019 19.5067 89.7305 19.3464 88.9815 19.0255C88.2322 18.7049 87.6555 18.2597 87.2512 17.6904C86.8472 17.1209 86.6452 16.4755 86.6452 15.7536C86.6452 15.0639 86.8178 14.4382 87.1628 13.8769C87.5081 13.3154 88.072 12.8663 88.855 12.5296C89.6381 12.1926 90.6946 12.0243 92.0247 12.0243H96.268V13.6845H92.1258C90.9135 13.6845 90.0967 13.8769 89.6759 14.2618C89.255 14.6469 89.0445 15.1121 89.0445 15.6573C89.0445 16.2827 89.3056 16.7842 89.8276 17.161C90.3493 17.5378 91.0733 17.7264 91.9994 17.7264C92.9088 17.7264 93.7044 17.534 94.3862 17.1491C95.0681 16.764 95.5608 16.2027 95.8637 15.4648L96.3435 17.0528C96.0238 17.8067 95.4596 18.4042 94.6513 18.8453C93.8433 19.2864 92.8245 19.5067 91.5954 19.5067ZM105.456 19.5067C104.11 19.5067 103.066 19.162 102.325 18.4723C101.584 17.7826 101.213 16.7961 101.213 15.513V3.82004H103.638V15.4167C103.638 16.1064 103.819 16.6358 104.181 17.0046C104.543 17.3737 105.061 17.5581 105.734 17.5581C106.492 17.5581 107.123 17.3576 107.629 16.9567L108.386 18.6166C108.016 18.9214 107.574 19.146 107.06 19.2902C106.547 19.4348 106.012 19.5067 105.456 19.5067ZM98.9402 8.51151V6.61101H107.477V8.51151H98.9402ZM117.702 19.3625V16.6679L117.575 16.1626V11.5672C117.575 10.5887 117.276 9.83085 116.679 9.29342C116.081 8.75628 115.184 8.48742 113.989 8.48742C113.198 8.48742 112.423 8.61174 111.665 8.86038C110.907 9.10902 110.268 9.44183 109.746 9.85881L108.735 8.12665C109.426 7.59725 110.255 7.19246 111.223 6.9117C112.191 6.63094 113.206 6.49056 114.267 6.49056C116.102 6.49056 117.516 6.91557 118.51 7.76589C119.503 8.61591 120 9.91502 120 11.6635V19.3625H117.702ZM113.307 19.5067C112.313 19.5067 111.442 19.3464 110.693 19.0255C109.944 18.7049 109.367 18.2597 108.963 17.6904C108.559 17.1209 108.357 16.4755 108.357 15.7536C108.357 15.0639 108.529 14.4382 108.874 13.8769C109.22 13.3154 109.783 12.8663 110.566 12.5296C111.35 12.1926 112.406 12.0243 113.736 12.0243H117.979V13.6845H113.837C112.625 13.6845 111.808 13.8769 111.387 14.2618C110.966 14.6469 110.756 15.1121 110.756 15.6573C110.756 16.2827 111.017 16.7842 111.539 17.161C112.061 17.5378 112.785 17.7264 113.711 17.7264C114.62 17.7264 115.416 17.534 116.098 17.1491C116.78 16.764 117.272 16.2027 117.575 15.4648L118.055 17.0528C117.735 17.8067 117.171 18.4042 116.363 18.8453C115.555 19.2864 114.536 19.5067 113.307 19.5067Z" fill="white"/>
<path d="M93.8272 37.657C93.8272 38.0659 93.7326 38.3913 93.5422 38.6313C93.352 38.8713 93.0963 38.9915 92.7757 38.9915C92.3923 38.9915 92.1022 38.855 91.9049 38.5825L91.8927 38.9418H91.6077V35.2163H91.9102V36.6981C92.1038 36.4125 92.3907 36.2692 92.7704 36.2692C93.0963 36.2692 93.3545 36.3876 93.544 36.6246C93.7326 36.862 93.8272 37.1915 93.8272 37.6129V37.657ZM93.5222 37.6064C93.5222 37.2602 93.4519 36.9937 93.3102 36.8049C93.1694 36.6169 92.9711 36.5226 92.7148 36.5226C92.5193 36.5226 92.3542 36.5681 92.2187 36.6591C92.0822 36.751 91.9795 36.8846 91.9102 37.0609V38.2438C92.0629 38.5733 92.3323 38.7381 92.7201 38.7381C92.9711 38.7381 93.1675 38.6438 93.3092 38.454C93.451 38.2655 93.5222 37.9823 93.5222 37.6064ZM95.3458 38.5245L96.1498 36.3189H96.4782L95.3024 39.3864L95.2406 39.5221C95.0901 39.8409 94.8566 40 94.5409 40C94.4679 40 94.3898 39.9884 94.3061 39.9658L94.3036 39.7267L94.462 39.7415C94.6115 39.7415 94.732 39.7067 94.8244 39.6363C94.9172 39.5661 94.9955 39.445 95.0598 39.2737L95.1953 38.9195L94.156 36.3189H94.4897L95.3458 38.5245Z" fill="white"/>
<path fill-rule="evenodd" clip-rule="evenodd" d="M39.1021 19.659C39.1021 29.3733 30.8349 37.2486 20.6373 37.2486V19.659H39.1021ZM20.6373 19.659H2.17261C2.17261 9.94475 10.4398 2.06943 20.6373 2.06943V19.659Z" fill="white"/>
<path fill-rule="evenodd" clip-rule="evenodd" d="M18.4647 39.318C15.6726 39.318 13.025 38.7268 10.6525 37.6694H18.4647V39.318ZM6.94929 35.4775C6.20996 34.9147 5.51622 34.2991 4.87587 33.6362H18.4647V35.4775H6.94929ZM3.07158 31.4442C2.66039 30.8544 2.28573 30.2396 1.95041 29.6026H18.4647V31.4442H3.07158ZM0.98535 27.4109C0.770546 26.811 0.589148 26.1965 0.442719 25.5693H18.4647V27.4109H0.98535ZM0.0814878 23.3776C0.0284111 22.8345 0 22.2846 0 21.7284H18.4647V23.3776H0.0814878ZM22.8095 0C33.0071 0 41.2743 7.87532 41.2743 17.5896H22.8095V0Z" fill="white"/>
</svg>
