<svg width="42" height="40" viewBox="0 0 42 40" fill="none" xmlns="http://www.w3.org/2000/svg">
<path fill-rule="evenodd" clip-rule="evenodd" d="M39.1021 19.659C39.1021 29.3733 30.8349 37.2486 20.6373 37.2486V19.659H39.1021V19.659ZM20.6373 19.659H2.17261C2.17261 9.94475 10.4398 2.06943 20.6373 2.06943V19.659Z" fill="white"/>
<path fill-rule="evenodd" clip-rule="evenodd" d="M18.4647 39.318C15.6726 39.318 13.025 38.7268 10.6525 37.6694H18.4647V39.318ZM6.94929 35.4775C6.20996 34.9147 5.51622 34.2991 4.87587 33.6362H18.4647V35.4775H6.94929ZM3.07158 31.4442C2.66039 30.8544 2.28573 30.2396 1.95041 29.6026H18.4647V31.4442H3.07158ZM0.98535 27.4109C0.770546 26.811 0.589148 26.1965 0.442719 25.5693H18.4647V27.4109H0.98535ZM0.0814878 23.3776C0.0284111 22.8345 0 22.2846 0 21.7284H18.4647V23.3776H0.0814878ZM22.8095 0C33.0071 0 41.2743 7.87532 41.2743 17.5896H22.8095V0Z" fill="white"/>
</svg>
