<svg width="29" height="32" viewBox="0 0 29 32" fill="none" xmlns="http://www.w3.org/2000/svg">
<path d="M15.5493 3.73228C18.4312 3.88032 21.0863 4.89291 23.2579 6.51496L23.9776 5.64409L22.891 4.74646C22.5776 4.48661 22.5335 4.02047 22.7934 3.70709C23.0516 3.3937 23.5178 3.34961 23.8312 3.60945L27.1414 6.34488C27.4564 6.60315 27.4989 7.06929 27.2406 7.38268C26.9808 7.69764 26.5146 7.74016 26.2012 7.48189L25.1146 6.58425L24.3934 7.45669C24.5351 7.5874 24.6737 7.71968 24.8091 7.85512C27.3713 10.4189 28.9556 13.9543 28.9556 17.8567C28.9556 21.7606 27.3713 25.2976 24.8123 27.8567C22.2516 30.4157 18.7146 32 14.8123 32C10.9067 32 7.36973 30.4157 4.81068 27.8567C2.25162 25.2976 0.668945 21.7606 0.668945 17.8567C0.668945 13.9528 2.2532 10.4173 4.81225 7.85669C7.20753 5.45984 10.4626 3.91811 14.0737 3.73228V1.47559H11.576C11.1682 1.47559 10.8375 1.14488 10.8375 0.738583C10.8375 0.330709 11.1682 0 11.576 0H18.0469C18.4548 0 18.7855 0.330709 18.7855 0.738583C18.7855 1.14488 18.4548 1.47559 18.0469 1.47559H15.5493V3.73228ZM23.7697 8.89764C21.48 6.60787 18.3115 5.19055 14.8123 5.19055C11.3146 5.19055 8.14611 6.60787 5.85477 8.89921C3.56343 11.189 2.14454 14.3559 2.14454 17.8567C2.14454 21.3543 3.56343 24.5213 5.85477 26.8126C8.14611 29.1055 11.3146 30.5228 14.8123 30.5228C18.3115 30.5228 21.48 29.1055 23.7682 26.8157C26.0611 24.5213 27.4784 21.3543 27.4784 17.8567C27.4784 14.3559 26.0611 11.189 23.7697 8.89764ZM8.59965 25.1118C8.31147 25.4 7.84375 25.4 7.55556 25.1118C7.26895 24.8236 7.26895 24.3559 7.55556 24.0677L8.59808 23.0252C8.88627 22.737 9.35399 22.737 9.64217 23.0252C9.93036 23.3134 9.93036 23.7811 9.64217 24.0693L8.59965 25.1118ZM5.28942 18.5937C4.88154 18.5937 4.55084 18.263 4.55084 17.8567C4.55084 17.4488 4.88154 17.1181 5.28942 17.1181H6.76186C7.16973 17.1181 7.50044 17.4488 7.50044 17.8567C7.50044 18.263 7.16973 18.5937 6.76186 18.5937H5.28942ZM7.55556 11.6441C7.26895 11.3575 7.26895 10.8882 7.55556 10.6016C7.84375 10.3134 8.31147 10.3134 8.59965 10.6016L9.64217 11.6441C9.93036 11.9307 9.93036 12.4 9.64217 12.6866C9.35399 12.9748 8.88627 12.9748 8.59808 12.6866L7.55556 11.6441ZM19.9808 24.0693C19.6926 23.7811 19.6926 23.3134 19.9808 23.0252C20.2689 22.737 20.7367 22.737 21.0249 23.0252L22.0674 24.0677C22.3556 24.3559 22.3556 24.8236 22.0674 25.1118C21.7792 25.4 21.3115 25.4 21.0233 25.1118L19.9808 24.0693ZM14.0737 25.9055C14.0737 25.4976 14.4044 25.1669 14.8123 25.1669C15.2186 25.1669 15.5493 25.4976 15.5493 25.9055V27.3795C15.5493 27.7874 15.2186 28.1181 14.8123 28.1181C14.4044 28.1181 14.0737 27.7874 14.0737 27.3795V25.9055Z" fill="#373435"/>
<path d="M14.8123 7.59528C17.6454 7.59528 20.2123 8.74331 22.069 10.6C23.9226 12.4551 25.0706 15.0221 25.0706 17.8567C25.0706 18.2614 24.7414 18.5921 24.3351 18.5921L14.8123 18.5937C14.4044 18.5937 14.0737 18.263 14.0737 17.8567V8.33229C14.0737 7.92599 14.4044 7.59528 14.8123 7.59528ZM21.0249 11.6441C19.5981 10.2189 17.6816 9.27874 15.5509 9.10237V17.1181H23.5698C23.3918 14.989 22.4517 13.0724 21.0249 11.6441Z" fill="#147D89"/>
</svg>
