<svg width="32" height="32" viewBox="0 0 32 32" fill="none" xmlns="http://www.w3.org/2000/svg">
<path d="M16.2018 6.21445C18.7153 6.21445 21.0004 7.24284 22.6556 8.89804C24.3124 10.5532 25.3408 12.84 25.3408 15.3535V26.0516H26.8007C27.4842 26.0516 28.1079 26.332 28.5583 26.7808C29.0087 27.2312 29.2874 27.8533 29.2874 28.54V32H3.1145V28.54C3.1145 27.8533 3.39483 27.2312 3.84525 26.7808C4.29409 26.332 4.91774 26.0516 5.60281 26.0516H7.06273V15.3535C7.06273 12.84 8.09113 10.5532 9.74632 8.89804C11.4015 7.24284 13.6883 6.21445 16.2018 6.21445ZM23.7628 26.0516V15.3535C23.7628 13.2762 22.9108 11.3832 21.5406 10.0146C20.1705 8.64449 18.279 7.79248 16.2018 7.79248C14.1229 7.79248 12.2315 8.64449 10.8629 10.0146C9.49277 11.3832 8.64076 13.2762 8.64076 15.3535V26.0516H23.7628ZM26.8007 27.6297H5.60281C5.35398 27.6297 5.12405 27.7336 4.96026 27.8974C4.79647 28.0612 4.69253 28.2896 4.69253 28.54V30.4235H27.7094V28.54C27.7094 28.2896 27.607 28.0612 27.4433 27.8974C27.2779 27.7336 27.0495 27.6297 26.8007 27.6297Z" fill="#373435"/>
<path d="M13.5026 26.0517L11.5828 16.5126C11.4978 16.0874 11.7734 15.6716 12.1986 15.5866C12.4017 15.5472 12.6002 15.5882 12.764 15.689L16.2003 17.7993L19.6352 15.6858C20.0053 15.459 20.4919 15.574 20.7203 15.9457C20.8399 16.1409 20.8636 16.3677 20.8069 16.5725L18.8965 26.0517H17.2933L18.9186 17.9773L16.613 19.3978C16.3673 19.5474 16.0492 19.5569 15.7877 19.3978L13.4805 17.9773L15.1074 26.0517H13.5026ZM28.1049 16.2937C27.56 16.2937 27.119 15.8527 27.119 15.3078C27.119 14.7629 27.56 14.322 28.1049 14.322H30.6247C31.1696 14.322 31.6105 14.7629 31.6105 15.3078C31.6105 15.8527 31.1696 16.2937 30.6247 16.2937H28.1049ZM27.0182 10.2572C26.5489 10.5297 25.9457 10.369 25.6733 9.8997C25.4008 9.43038 25.563 8.8272 26.0323 8.55475L28.212 7.29642C28.6828 7.02397 29.2845 7.1846 29.5569 7.65392C29.8294 8.12323 29.6687 8.72641 29.1994 8.99887L27.0182 10.2572ZM23.0558 5.57823C22.7833 6.04912 22.1802 6.20975 21.7108 5.9373C21.2415 5.66484 21.0809 5.06167 21.3534 4.59235L22.6117 2.41272C22.8841 1.94183 23.4873 1.78119 23.9566 2.05364C24.4259 2.3261 24.5866 2.92928 24.3157 3.39859L23.0558 5.57823ZM17.2886 3.50568C17.2886 4.05059 16.8476 4.49313 16.3027 4.49313C15.7578 4.49313 15.3168 4.05059 15.3168 3.50568V0.985875C15.3168 0.442541 15.7578 0 16.3027 0C16.8476 0 17.2886 0.442541 17.2886 0.985875V3.50568ZM11.2521 4.59235C11.5245 5.06167 11.3639 5.66484 10.8946 5.9373C10.4253 6.20975 9.82208 6.04912 9.54962 5.57823L8.28972 3.39859C8.01884 2.92928 8.17948 2.3261 8.64879 2.05364C9.11811 1.78119 9.72129 1.94183 9.99374 2.41272L11.2521 4.59235ZM6.5731 8.55475C7.04241 8.8272 7.20463 9.43038 6.93217 9.8997C6.65972 10.369 6.05654 10.5297 5.58722 10.2572L3.40602 8.99887C2.9367 8.72641 2.77606 8.12323 3.04852 7.65392C3.32097 7.1846 3.92258 7.02397 4.39189 7.29642L6.5731 8.55475ZM4.50056 14.322C5.04547 14.322 5.48643 14.7629 5.48643 15.3078C5.48643 15.8527 5.04547 16.2937 4.50056 16.2937H1.98075C1.43584 16.2937 0.994873 15.8527 0.994873 15.3078C0.994873 14.7629 1.43584 14.322 1.98075 14.322H4.50056Z" fill="#3DB9AF"/>
</svg>
