<svg width="431" height="431" viewBox="0 0 431 431" fill="none" xmlns="http://www.w3.org/2000/svg">
<path d="M356.931 430.626H73.4842C32.8902 430.626 0 397.701 0 357.106V73.5201C0 32.9063 32.9094 0 73.4842 0H356.931C397.525 0 430.416 32.9255 430.416 73.5201V357.106C430.435 397.72 397.525 430.626 356.931 430.626Z" fill="#16B0AC"/>
<path d="M356.931 430.626H73.4842C32.8902 430.626 0 397.701 0 357.106V73.5201C0 32.9063 32.9094 0 73.4842 0H356.931C397.525 0 430.416 32.9255 430.416 73.5201V357.106C430.435 397.72 397.525 430.626 356.931 430.626Z" fill="#16B0AC"/>
<path d="M356.931 430.626H73.4842C32.8902 430.626 0 397.701 0 357.106V73.5201C0 32.9063 32.9094 0 73.4842 0H356.931C397.525 0 430.416 32.9255 430.416 73.5201V357.106C430.435 397.72 397.525 430.626 356.931 430.626Z" fill="#16B0AC"/>
<path d="M328.018 299.962H190.598C166.257 299.962 151.099 274.475 163.394 254.197L232.095 140.986C244.275 120.919 274.322 120.919 286.502 140.986L355.202 254.197C367.517 274.475 352.359 299.962 328.018 299.962Z" fill="white"/>
<path d="M234.016 304.652H101.322C77.8069 304.652 63.1869 280.03 75.0596 260.463L141.397 151.154C153.155 131.779 182.183 131.779 193.921 151.154L260.259 260.463C272.151 280.049 257.512 304.652 234.016 304.652Z" fill="#D7EEEB"/>
</svg>
