<svg width="50" height="50" viewBox="0 0 50 50" fill="none" xmlns="http://www.w3.org/2000/svg">
  <path fill-rule="evenodd" clip-rule="evenodd"
    d="M47.3349 24.9823C47.3349 37.327 37.3271 47.3348 24.9824 47.3348V24.9823H47.3349V24.9823ZM24.9824 24.9823H2.62988C2.62988 12.6376 12.6377 2.62982 24.9824 2.62982V24.9823Z"
    fill="#23374A" />
  <path fill-rule="evenodd" clip-rule="evenodd"
    d="M22.3525 49.9646C18.9725 49.9646 15.7674 49.2132 12.8954 47.8696H22.3525V49.9646ZM8.41247 45.0841C7.51748 44.369 6.67767 43.5867 5.90249 42.7442H22.3525V45.0841H8.41247ZM3.7183 39.9587C3.22054 39.2092 2.76699 38.428 2.36107 37.6184H22.3525V39.9587H3.7183ZM1.19282 34.8333C0.932785 34.0709 0.713194 33.2901 0.535934 32.493H22.3525V34.8333H1.19282ZM0.0986451 29.7078C0.0343931 29.0177 0 28.3189 0 27.6121H22.3525V29.7078H0.0986451ZM27.6121 0C39.9568 0 49.9646 10.0078 49.9646 22.3525H27.6121V0Z"
    fill="#83B6BC" />
</svg>